<svg xmlns="http://www.w3.org/2000/svg" width="960" height="240" viewBox="0 0 960 240" role="img">
<g shape-rendering="crispEdges"><rect width="960" height="240" fill="#0f1220"/><rect x="130" y="30" width="6" height="6" fill="#ea580c"/><rect x="220" y="22" width="6" height="6" fill="#fb923c"/><rect x="300" y="38" width="6" height="6" fill="#c2410c"/><rect x="420" y="18" width="6" height="6" fill="#f97316"/><rect x="540" y="30" width="6" height="6" fill="#fdba74"/><rect x="660" y="20" width="6" height="6" fill="#ea580c"/><rect x="740" y="40" width="6" height="6" fill="#fb923c"/><rect x="900" y="52" width="6" height="6" fill="#c2410c"/><rect x="40" y="140" width="6" height="6" fill="#c2410c"/><rect x="925" y="150" width="6" height="6" fill="#f97316"/><rect x="180" y="178" width="6" height="6" fill="#c2410c"/><rect x="760" y="182" width="6" height="6" fill="#ea580c"/><rect x="500" y="190" width="6" height="6" fill="#c2410c"/><rect x="340" y="184" width="6" height="6" fill="#f97316"/><rect x="66" y="26" width="5" height="5" fill="#ea580c"/><rect x="66" y="31" width="5" height="5" fill="#ea580c"/><rect x="71" y="31" width="5" height="5" fill="#ea580c"/><rect x="66" y="36" width="5" height="5" fill="#ea580c"/><rect x="71" y="36" width="5" height="5" fill="#ea580c"/><rect x="76" y="36" width="5" height="5" fill="#ea580c"/><rect x="81" y="36" width="5" height="5" fill="#ea580c"/><rect x="66" y="41" width="5" height="5" fill="#ea580c"/><rect x="71" y="41" width="5" height="5" fill="#ea580c"/><rect x="76" y="41" width="5" height="5" fill="#ea580c"/><rect x="81" y="41" width="5" height="5" fill="#ea580c"/><rect x="86" y="41" width="5" height="5" fill="#ea580c"/><rect x="91" y="41" width="5" height="5" fill="#ea580c"/><rect x="66" y="46" width="5" height="5" fill="#ea580c"/><rect x="71" y="46" width="5" height="5" fill="#ea580c"/><rect x="76" y="46" width="5" height="5" fill="#ea580c"/><rect x="81" y="46" width="5" height="5" fill="#ea580c"/><rect x="66" y="51" width="5" height="5" fill="#ea580c"/><rect x="71" y="51" width="5" height="5" fill="#ea580c"/><rect x="66" y="56" width="5" height="5" fill="#ea580c"/><rect x="858" y="22" width="5" height="5" fill="#fdba74"/><rect x="853" y="27" width="5" height="5" fill="#fdba74"/><rect x="858" y="27" width="5" height="5" fill="#fdba74"/><rect x="863" y="27" width="5" height="5" fill="#fdba74"/><rect x="853" y="32" width="5" height="5" fill="#fdba74"/><rect x="858" y="32" width="5" height="5" fill="#fdba74"/><rect x="863" y="32" width="5" height="5" fill="#fdba74"/><rect x="838" y="37" width="5" height="5" fill="#fdba74"/><rect x="843" y="37" width="5" height="5" fill="#fdba74"/><rect x="848" y="37" width="5" height="5" fill="#fdba74"/><rect x="853" y="37" width="5" height="5" fill="#fdba74"/><rect x="858" y="37" width="5" height="5" fill="#fdba74"/><rect x="863" y="37" width="5" height="5" fill="#fdba74"/><rect x="868" y="37" width="5" height="5" fill="#fdba74"/><rect x="873" y="37" width="5" height="5" fill="#fdba74"/><rect x="878" y="37" width="5" height="5" fill="#fdba74"/><rect x="843" y="42" width="5" height="5" fill="#fdba74"/><rect x="848" y="42" width="5" height="5" fill="#fdba74"/><rect x="853" y="42" width="5" height="5" fill="#fdba74"/><rect x="858" y="42" width="5" height="5" fill="#fdba74"/><rect x="863" y="42" width="5" height="5" fill="#fdba74"/><rect x="868" y="42" width="5" height="5" fill="#fdba74"/><rect x="873" y="42" width="5" height="5" fill="#fdba74"/><rect x="848" y="47" width="5" height="5" fill="#fdba74"/><rect x="853" y="47" width="5" height="5" fill="#fdba74"/><rect x="858" y="47" width="5" height="5" fill="#fdba74"/><rect x="863" y="47" width="5" height="5" fill="#fdba74"/><rect x="868" y="47" width="5" height="5" fill="#fdba74"/><rect x="843" y="52" width="5" height="5" fill="#fdba74"/><rect x="848" y="52" width="5" height="5" fill="#fdba74"/><rect x="853" y="52" width="5" height="5" fill="#fdba74"/><rect x="863" y="52" width="5" height="5" fill="#fdba74"/><rect x="868" y="52" width="5" height="5" fill="#fdba74"/><rect x="873" y="52" width="5" height="5" fill="#fdba74"/><rect x="838" y="57" width="5" height="5" fill="#fdba74"/><rect x="843" y="57" width="5" height="5" fill="#fdba74"/><rect x="873" y="57" width="5" height="5" fill="#fdba74"/><rect x="878" y="57" width="5" height="5" fill="#fdba74"/><rect x="54" y="96" width="7" height="7" fill="#f97316"/><rect x="61" y="96" width="7" height="7" fill="#f97316"/><rect x="68" y="96" width="7" height="7" fill="#f97316"/><rect x="75" y="96" width="7" height="7" fill="#f97316"/><rect x="82" y="96" width="7" height="7" fill="#f97316"/><rect x="89" y="96" width="7" height="7" fill="#f97316"/><rect x="96" y="96" width="7" height="7" fill="#f97316"/><rect x="103" y="96" width="7" height="7" fill="#f97316"/><rect x="47" y="103" width="7" height="7" fill="#f97316"/><rect x="54" y="103" width="7" height="7" fill="#f97316"/><rect x="61" y="103" width="7" height="7" fill="#f97316"/><rect x="68" y="103" width="7" height="7" fill="#f97316"/><rect x="75" y="103" width="7" height="7" fill="#f97316"/><rect x="82" y="103" width="7" height="7" fill="#f97316"/><rect x="89" y="103" width="7" height="7" fill="#f97316"/><rect x="96" y="103" width="7" height="7" fill="#f97316"/><rect x="103" y="103" width="7" height="7" fill="#f97316"/><rect x="110" y="103" width="7" height="7" fill="#f97316"/><rect x="40" y="110" width="7" height="7" fill="#f97316"/><rect x="47" y="110" width="7" height="7" fill="#f97316"/><rect x="54" y="110" width="7" height="7" fill="#f97316"/><rect x="61" y="110" width="7" height="7" fill="#f97316"/><rect x="68" y="110" width="7" height="7" fill="#f97316"/><rect x="75" y="110" width="7" height="7" fill="#f97316"/><rect x="82" y="110" width="7" height="7" fill="#f97316"/><rect x="89" y="110" width="7" height="7" fill="#f97316"/><rect x="96" y="110" width="7" height="7" fill="#f97316"/><rect x="103" y="110" width="7" height="7" fill="#f97316"/><rect x="110" y="110" width="7" height="7" fill="#f97316"/><rect x="117" y="110" width="7" height="7" fill="#f97316"/><rect x="40" y="117" width="7" height="7" fill="#f97316"/><rect x="47" y="117" width="7" height="7" fill="#f97316"/><rect x="54" y="117" width="7" height="7" fill="#f97316"/><rect x="61" y="117" width="7" height="7" fill="#f97316"/><rect x="68" y="117" width="7" height="7" fill="#f97316"/><rect x="75" y="117" width="7" height="7" fill="#f97316"/><rect x="82" y="117" width="7" height="7" fill="#f97316"/><rect x="89" y="117" width="7" height="7" fill="#f97316"/><rect x="96" y="117" width="7" height="7" fill="#f97316"/><rect x="103" y="117" width="7" height="7" fill="#f97316"/><rect x="110" y="117" width="7" height="7" fill="#f97316"/><rect x="117" y="117" width="7" height="7" fill="#f97316"/><rect x="40" y="124" width="7" height="7" fill="#f97316"/><rect x="47" y="124" width="7" height="7" fill="#f97316"/><rect x="54" y="124" width="7" height="7" fill="#f97316"/><rect x="61" y="124" width="7" height="7" fill="#f97316"/><rect x="68" y="124" width="7" height="7" fill="#f97316"/><rect x="75" y="124" width="7" height="7" fill="#f97316"/><rect x="82" y="124" width="7" height="7" fill="#f97316"/><rect x="89" y="124" width="7" height="7" fill="#f97316"/><rect x="96" y="124" width="7" height="7" fill="#f97316"/><rect x="103" y="124" width="7" height="7" fill="#f97316"/><rect x="110" y="124" width="7" height="7" fill="#f97316"/><rect x="117" y="124" width="7" height="7" fill="#f97316"/><rect x="40" y="131" width="7" height="7" fill="#f97316"/><rect x="47" y="131" width="7" height="7" fill="#f97316"/><rect x="54" y="131" width="7" height="7" fill="#f97316"/><rect x="61" y="131" width="7" height="7" fill="#f97316"/><rect x="68" y="131" width="7" height="7" fill="#f97316"/><rect x="75" y="131" width="7" height="7" fill="#f97316"/><rect x="82" y="131" width="7" height="7" fill="#f97316"/><rect x="89" y="131" width="7" height="7" fill="#f97316"/><rect x="96" y="131" width="7" height="7" fill="#f97316"/><rect x="103" y="131" width="7" height="7" fill="#f97316"/><rect x="110" y="131" width="7" height="7" fill="#f97316"/><rect x="117" y="131" width="7" height="7" fill="#f97316"/><rect x="40" y="138" width="7" height="7" fill="#f97316"/><rect x="47" y="138" width="7" height="7" fill="#f97316"/><rect x="61" y="138" width="7" height="7" fill="#f97316"/><rect x="68" y="138" width="7" height="7" fill="#f97316"/><rect x="75" y="138" width="7" height="7" fill="#f97316"/><rect x="82" y="138" width="7" height="7" fill="#f97316"/><rect x="89" y="138" width="7" height="7" fill="#f97316"/><rect x="96" y="138" width="7" height="7" fill="#f97316"/><rect x="110" y="138" width="7" height="7" fill="#f97316"/><rect x="117" y="138" width="7" height="7" fill="#f97316"/><rect x="40" y="145" width="7" height="7" fill="#f97316"/><rect x="68" y="145" width="7" height="7" fill="#f97316"/><rect x="75" y="145" width="7" height="7" fill="#f97316"/><rect x="82" y="145" width="7" height="7" fill="#f97316"/><rect x="89" y="145" width="7" height="7" fill="#f97316"/><rect x="117" y="145" width="7" height="7" fill="#f97316"/><rect x="61" y="110" width="7" height="7" fill="#0f1220"/><rect x="54" y="117" width="7" height="7" fill="#0f1220"/><rect x="61" y="117" width="7" height="7" fill="#0f1220"/><rect x="68" y="117" width="7" height="7" fill="#0f1220"/><rect x="61" y="124" width="7" height="7" fill="#0f1220"/><rect x="96" y="117" width="7" height="7" fill="#0f1220"/><rect x="110" y="117" width="7" height="7" fill="#0f1220"/><rect x="870" y="96" width="8" height="8" fill="#fb923c"/><rect x="878" y="96" width="8" height="8" fill="#fb923c"/><rect x="894" y="96" width="8" height="8" fill="#fb923c"/><rect x="902" y="96" width="8" height="8" fill="#fb923c"/><rect x="862" y="104" width="8" height="8" fill="#fb923c"/><rect x="870" y="104" width="8" height="8" fill="#fb923c"/><rect x="878" y="104" width="8" height="8" fill="#fb923c"/><rect x="886" y="104" width="8" height="8" fill="#fb923c"/><rect x="894" y="104" width="8" height="8" fill="#fb923c"/><rect x="902" y="104" width="8" height="8" fill="#fb923c"/><rect x="910" y="104" width="8" height="8" fill="#fb923c"/><rect x="862" y="112" width="8" height="8" fill="#fb923c"/><rect x="870" y="112" width="8" height="8" fill="#fb923c"/><rect x="878" y="112" width="8" height="8" fill="#fb923c"/><rect x="886" y="112" width="8" height="8" fill="#fb923c"/><rect x="894" y="112" width="8" height="8" fill="#fb923c"/><rect x="902" y="112" width="8" height="8" fill="#fb923c"/><rect x="910" y="112" width="8" height="8" fill="#fb923c"/><rect x="870" y="120" width="8" height="8" fill="#fb923c"/><rect x="878" y="120" width="8" height="8" fill="#fb923c"/><rect x="886" y="120" width="8" height="8" fill="#fb923c"/><rect x="894" y="120" width="8" height="8" fill="#fb923c"/><rect x="902" y="120" width="8" height="8" fill="#fb923c"/><rect x="878" y="128" width="8" height="8" fill="#fb923c"/><rect x="886" y="128" width="8" height="8" fill="#fb923c"/><rect x="894" y="128" width="8" height="8" fill="#fb923c"/><rect x="886" y="136" width="8" height="8" fill="#fb923c"/><rect x="130" y="61" width="9" height="9" fill="#431407"/><rect x="130" y="70" width="9" height="9" fill="#431407"/><rect x="130" y="79" width="9" height="9" fill="#431407"/><rect x="130" y="88" width="9" height="9" fill="#431407"/><rect x="130" y="97" width="9" height="9" fill="#431407"/><rect x="139" y="97" width="9" height="9" fill="#431407"/><rect x="148" y="97" width="9" height="9" fill="#431407"/><rect x="157" y="97" width="9" height="9" fill="#431407"/><rect x="166" y="97" width="9" height="9" fill="#431407"/><rect x="184" y="61" width="9" height="9" fill="#431407"/><rect x="193" y="61" width="9" height="9" fill="#431407"/><rect x="202" y="61" width="9" height="9" fill="#431407"/><rect x="211" y="61" width="9" height="9" fill="#431407"/><rect x="220" y="61" width="9" height="9" fill="#431407"/><rect x="184" y="70" width="9" height="9" fill="#431407"/><rect x="184" y="79" width="9" height="9" fill="#431407"/><rect x="193" y="79" width="9" height="9" fill="#431407"/><rect x="202" y="79" width="9" height="9" fill="#431407"/><rect x="211" y="79" width="9" height="9" fill="#431407"/><rect x="184" y="88" width="9" height="9" fill="#431407"/><rect x="184" y="97" width="9" height="9" fill="#431407"/><rect x="193" y="97" width="9" height="9" fill="#431407"/><rect x="202" y="97" width="9" height="9" fill="#431407"/><rect x="211" y="97" width="9" height="9" fill="#431407"/><rect x="220" y="97" width="9" height="9" fill="#431407"/><rect x="247" y="61" width="9" height="9" fill="#431407"/><rect x="256" y="61" width="9" height="9" fill="#431407"/><rect x="265" y="61" width="9" height="9" fill="#431407"/><rect x="274" y="61" width="9" height="9" fill="#431407"/><rect x="238" y="70" width="9" height="9" fill="#431407"/><rect x="247" y="79" width="9" height="9" fill="#431407"/><rect x="256" y="79" width="9" height="9" fill="#431407"/><rect x="265" y="79" width="9" height="9" fill="#431407"/><rect x="274" y="88" width="9" height="9" fill="#431407"/><rect x="238" y="97" width="9" height="9" fill="#431407"/><rect x="247" y="97" width="9" height="9" fill="#431407"/><rect x="256" y="97" width="9" height="9" fill="#431407"/><rect x="265" y="97" width="9" height="9" fill="#431407"/><rect x="301" y="61" width="9" height="9" fill="#431407"/><rect x="310" y="61" width="9" height="9" fill="#431407"/><rect x="319" y="61" width="9" height="9" fill="#431407"/><rect x="328" y="61" width="9" height="9" fill="#431407"/><rect x="292" y="70" width="9" height="9" fill="#431407"/><rect x="301" y="79" width="9" height="9" fill="#431407"/><rect x="310" y="79" width="9" height="9" fill="#431407"/><rect x="319" y="79" width="9" height="9" fill="#431407"/><rect x="328" y="88" width="9" height="9" fill="#431407"/><rect x="292" y="97" width="9" height="9" fill="#431407"/><rect x="301" y="97" width="9" height="9" fill="#431407"/><rect x="310" y="97" width="9" height="9" fill="#431407"/><rect x="319" y="97" width="9" height="9" fill="#431407"/><rect x="355" y="61" width="9" height="9" fill="#431407"/><rect x="364" y="61" width="9" height="9" fill="#431407"/><rect x="373" y="61" width="9" height="9" fill="#431407"/><rect x="346" y="70" width="9" height="9" fill="#431407"/><rect x="382" y="70" width="9" height="9" fill="#431407"/><rect x="346" y="79" width="9" height="9" fill="#431407"/><rect x="382" y="79" width="9" height="9" fill="#431407"/><rect x="346" y="88" width="9" height="9" fill="#431407"/><rect x="382" y="88" width="9" height="9" fill="#431407"/><rect x="355" y="97" width="9" height="9" fill="#431407"/><rect x="364" y="97" width="9" height="9" fill="#431407"/><rect x="373" y="97" width="9" height="9" fill="#431407"/><rect x="400" y="61" width="9" height="9" fill="#431407"/><rect x="436" y="61" width="9" height="9" fill="#431407"/><rect x="400" y="70" width="9" height="9" fill="#431407"/><rect x="409" y="70" width="9" height="9" fill="#431407"/><rect x="436" y="70" width="9" height="9" fill="#431407"/><rect x="400" y="79" width="9" height="9" fill="#431407"/><rect x="418" y="79" width="9" height="9" fill="#431407"/><rect x="436" y="79" width="9" height="9" fill="#431407"/><rect x="400" y="88" width="9" height="9" fill="#431407"/><rect x="427" y="88" width="9" height="9" fill="#431407"/><rect x="436" y="88" width="9" height="9" fill="#431407"/><rect x="400" y="97" width="9" height="9" fill="#431407"/><rect x="436" y="97" width="9" height="9" fill="#431407"/><rect x="490" y="61" width="9" height="9" fill="#431407"/><rect x="499" y="61" width="9" height="9" fill="#431407"/><rect x="508" y="61" width="9" height="9" fill="#431407"/><rect x="517" y="61" width="9" height="9" fill="#431407"/><rect x="526" y="61" width="9" height="9" fill="#431407"/><rect x="508" y="70" width="9" height="9" fill="#431407"/><rect x="508" y="79" width="9" height="9" fill="#431407"/><rect x="508" y="88" width="9" height="9" fill="#431407"/><rect x="490" y="97" width="9" height="9" fill="#431407"/><rect x="499" y="97" width="9" height="9" fill="#431407"/><rect x="508" y="97" width="9" height="9" fill="#431407"/><rect x="517" y="97" width="9" height="9" fill="#431407"/><rect x="526" y="97" width="9" height="9" fill="#431407"/><rect x="544" y="61" width="9" height="9" fill="#431407"/><rect x="580" y="61" width="9" height="9" fill="#431407"/><rect x="544" y="70" width="9" height="9" fill="#431407"/><rect x="553" y="70" width="9" height="9" fill="#431407"/><rect x="580" y="70" width="9" height="9" fill="#431407"/><rect x="544" y="79" width="9" height="9" fill="#431407"/><rect x="562" y="79" width="9" height="9" fill="#431407"/><rect x="580" y="79" width="9" height="9" fill="#431407"/><rect x="544" y="88" width="9" height="9" fill="#431407"/><rect x="571" y="88" width="9" height="9" fill="#431407"/><rect x="580" y="88" width="9" height="9" fill="#431407"/><rect x="544" y="97" width="9" height="9" fill="#431407"/><rect x="580" y="97" width="9" height="9" fill="#431407"/><rect x="643" y="61" width="9" height="9" fill="#431407"/><rect x="652" y="61" width="9" height="9" fill="#431407"/><rect x="661" y="61" width="9" height="9" fill="#431407"/><rect x="670" y="61" width="9" height="9" fill="#431407"/><rect x="634" y="70" width="9" height="9" fill="#431407"/><rect x="634" y="79" width="9" height="9" fill="#431407"/><rect x="661" y="79" width="9" height="9" fill="#431407"/><rect x="670" y="79" width="9" height="9" fill="#431407"/><rect x="634" y="88" width="9" height="9" fill="#431407"/><rect x="670" y="88" width="9" height="9" fill="#431407"/><rect x="643" y="97" width="9" height="9" fill="#431407"/><rect x="652" y="97" width="9" height="9" fill="#431407"/><rect x="661" y="97" width="9" height="9" fill="#431407"/><rect x="697" y="61" width="9" height="9" fill="#431407"/><rect x="706" y="61" width="9" height="9" fill="#431407"/><rect x="715" y="61" width="9" height="9" fill="#431407"/><rect x="688" y="70" width="9" height="9" fill="#431407"/><rect x="724" y="70" width="9" height="9" fill="#431407"/><rect x="688" y="79" width="9" height="9" fill="#431407"/><rect x="697" y="79" width="9" height="9" fill="#431407"/><rect x="706" y="79" width="9" height="9" fill="#431407"/><rect x="715" y="79" width="9" height="9" fill="#431407"/><rect x="724" y="79" width="9" height="9" fill="#431407"/><rect x="688" y="88" width="9" height="9" fill="#431407"/><rect x="724" y="88" width="9" height="9" fill="#431407"/><rect x="688" y="97" width="9" height="9" fill="#431407"/><rect x="724" y="97" width="9" height="9" fill="#431407"/><rect x="742" y="61" width="9" height="9" fill="#431407"/><rect x="778" y="61" width="9" height="9" fill="#431407"/><rect x="742" y="70" width="9" height="9" fill="#431407"/><rect x="751" y="70" width="9" height="9" fill="#431407"/><rect x="769" y="70" width="9" height="9" fill="#431407"/><rect x="778" y="70" width="9" height="9" fill="#431407"/><rect x="742" y="79" width="9" height="9" fill="#431407"/><rect x="760" y="79" width="9" height="9" fill="#431407"/><rect x="778" y="79" width="9" height="9" fill="#431407"/><rect x="742" y="88" width="9" height="9" fill="#431407"/><rect x="778" y="88" width="9" height="9" fill="#431407"/><rect x="742" y="97" width="9" height="9" fill="#431407"/><rect x="778" y="97" width="9" height="9" fill="#431407"/><rect x="796" y="61" width="9" height="9" fill="#431407"/><rect x="805" y="61" width="9" height="9" fill="#431407"/><rect x="814" y="61" width="9" height="9" fill="#431407"/><rect x="823" y="61" width="9" height="9" fill="#431407"/><rect x="832" y="61" width="9" height="9" fill="#431407"/><rect x="796" y="70" width="9" height="9" fill="#431407"/><rect x="796" y="79" width="9" height="9" fill="#431407"/><rect x="805" y="79" width="9" height="9" fill="#431407"/><rect x="814" y="79" width="9" height="9" fill="#431407"/><rect x="823" y="79" width="9" height="9" fill="#431407"/><rect x="796" y="88" width="9" height="9" fill="#431407"/><rect x="796" y="97" width="9" height="9" fill="#431407"/><rect x="805" y="97" width="9" height="9" fill="#431407"/><rect x="814" y="97" width="9" height="9" fill="#431407"/><rect x="823" y="97" width="9" height="9" fill="#431407"/><rect x="832" y="97" width="9" height="9" fill="#431407"/><rect x="125" y="56" width="9" height="9" fill="#fdba74"/><rect x="125" y="65" width="9" height="9" fill="#fb923c"/><rect x="125" y="74" width="9" height="9" fill="#f97316"/><rect x="125" y="83" width="9" height="9" fill="#ea580c"/><rect x="125" y="92" width="9" height="9" fill="#c2410c"/><rect x="134" y="92" width="9" height="9" fill="#c2410c"/><rect x="143" y="92" width="9" height="9" fill="#c2410c"/><rect x="152" y="92" width="9" height="9" fill="#c2410c"/><rect x="161" y="92" width="9" height="9" fill="#c2410c"/><rect x="179" y="56" width="9" height="9" fill="#fdba74"/><rect x="188" y="56" width="9" height="9" fill="#fdba74"/><rect x="197" y="56" width="9" height="9" fill="#fdba74"/><rect x="206" y="56" width="9" height="9" fill="#fdba74"/><rect x="215" y="56" width="9" height="9" fill="#fdba74"/><rect x="179" y="65" width="9" height="9" fill="#fb923c"/><rect x="179" y="74" width="9" height="9" fill="#f97316"/><rect x="188" y="74" width="9" height="9" fill="#f97316"/><rect x="197" y="74" width="9" height="9" fill="#f97316"/><rect x="206" y="74" width="9" height="9" fill="#f97316"/><rect x="179" y="83" width="9" height="9" fill="#ea580c"/><rect x="179" y="92" width="9" height="9" fill="#c2410c"/><rect x="188" y="92" width="9" height="9" fill="#c2410c"/><rect x="197" y="92" width="9" height="9" fill="#c2410c"/><rect x="206" y="92" width="9" height="9" fill="#c2410c"/><rect x="215" y="92" width="9" height="9" fill="#c2410c"/><rect x="242" y="56" width="9" height="9" fill="#fdba74"/><rect x="251" y="56" width="9" height="9" fill="#fdba74"/><rect x="260" y="56" width="9" height="9" fill="#fdba74"/><rect x="269" y="56" width="9" height="9" fill="#fdba74"/><rect x="233" y="65" width="9" height="9" fill="#fb923c"/><rect x="242" y="74" width="9" height="9" fill="#f97316"/><rect x="251" y="74" width="9" height="9" fill="#f97316"/><rect x="260" y="74" width="9" height="9" fill="#f97316"/><rect x="269" y="83" width="9" height="9" fill="#ea580c"/><rect x="233" y="92" width="9" height="9" fill="#c2410c"/><rect x="242" y="92" width="9" height="9" fill="#c2410c"/><rect x="251" y="92" width="9" height="9" fill="#c2410c"/><rect x="260" y="92" width="9" height="9" fill="#c2410c"/><rect x="296" y="56" width="9" height="9" fill="#fdba74"/><rect x="305" y="56" width="9" height="9" fill="#fdba74"/><rect x="314" y="56" width="9" height="9" fill="#fdba74"/><rect x="323" y="56" width="9" height="9" fill="#fdba74"/><rect x="287" y="65" width="9" height="9" fill="#fb923c"/><rect x="296" y="74" width="9" height="9" fill="#f97316"/><rect x="305" y="74" width="9" height="9" fill="#f97316"/><rect x="314" y="74" width="9" height="9" fill="#f97316"/><rect x="323" y="83" width="9" height="9" fill="#ea580c"/><rect x="287" y="92" width="9" height="9" fill="#c2410c"/><rect x="296" y="92" width="9" height="9" fill="#c2410c"/><rect x="305" y="92" width="9" height="9" fill="#c2410c"/><rect x="314" y="92" width="9" height="9" fill="#c2410c"/><rect x="350" y="56" width="9" height="9" fill="#fdba74"/><rect x="359" y="56" width="9" height="9" fill="#fdba74"/><rect x="368" y="56" width="9" height="9" fill="#fdba74"/><rect x="341" y="65" width="9" height="9" fill="#fb923c"/><rect x="377" y="65" width="9" height="9" fill="#fb923c"/><rect x="341" y="74" width="9" height="9" fill="#f97316"/><rect x="377" y="74" width="9" height="9" fill="#f97316"/><rect x="341" y="83" width="9" height="9" fill="#ea580c"/><rect x="377" y="83" width="9" height="9" fill="#ea580c"/><rect x="350" y="92" width="9" height="9" fill="#c2410c"/><rect x="359" y="92" width="9" height="9" fill="#c2410c"/><rect x="368" y="92" width="9" height="9" fill="#c2410c"/><rect x="395" y="56" width="9" height="9" fill="#fdba74"/><rect x="431" y="56" width="9" height="9" fill="#fdba74"/><rect x="395" y="65" width="9" height="9" fill="#fb923c"/><rect x="404" y="65" width="9" height="9" fill="#fb923c"/><rect x="431" y="65" width="9" height="9" fill="#fb923c"/><rect x="395" y="74" width="9" height="9" fill="#f97316"/><rect x="413" y="74" width="9" height="9" fill="#f97316"/><rect x="431" y="74" width="9" height="9" fill="#f97316"/><rect x="395" y="83" width="9" height="9" fill="#ea580c"/><rect x="422" y="83" width="9" height="9" fill="#ea580c"/><rect x="431" y="83" width="9" height="9" fill="#ea580c"/><rect x="395" y="92" width="9" height="9" fill="#c2410c"/><rect x="431" y="92" width="9" height="9" fill="#c2410c"/><rect x="485" y="56" width="9" height="9" fill="#fdba74"/><rect x="494" y="56" width="9" height="9" fill="#fdba74"/><rect x="503" y="56" width="9" height="9" fill="#fdba74"/><rect x="512" y="56" width="9" height="9" fill="#fdba74"/><rect x="521" y="56" width="9" height="9" fill="#fdba74"/><rect x="503" y="65" width="9" height="9" fill="#fb923c"/><rect x="503" y="74" width="9" height="9" fill="#f97316"/><rect x="503" y="83" width="9" height="9" fill="#ea580c"/><rect x="485" y="92" width="9" height="9" fill="#c2410c"/><rect x="494" y="92" width="9" height="9" fill="#c2410c"/><rect x="503" y="92" width="9" height="9" fill="#c2410c"/><rect x="512" y="92" width="9" height="9" fill="#c2410c"/><rect x="521" y="92" width="9" height="9" fill="#c2410c"/><rect x="539" y="56" width="9" height="9" fill="#fdba74"/><rect x="575" y="56" width="9" height="9" fill="#fdba74"/><rect x="539" y="65" width="9" height="9" fill="#fb923c"/><rect x="548" y="65" width="9" height="9" fill="#fb923c"/><rect x="575" y="65" width="9" height="9" fill="#fb923c"/><rect x="539" y="74" width="9" height="9" fill="#f97316"/><rect x="557" y="74" width="9" height="9" fill="#f97316"/><rect x="575" y="74" width="9" height="9" fill="#f97316"/><rect x="539" y="83" width="9" height="9" fill="#ea580c"/><rect x="566" y="83" width="9" height="9" fill="#ea580c"/><rect x="575" y="83" width="9" height="9" fill="#ea580c"/><rect x="539" y="92" width="9" height="9" fill="#c2410c"/><rect x="575" y="92" width="9" height="9" fill="#c2410c"/><rect x="638" y="56" width="9" height="9" fill="#fdba74"/><rect x="647" y="56" width="9" height="9" fill="#fdba74"/><rect x="656" y="56" width="9" height="9" fill="#fdba74"/><rect x="665" y="56" width="9" height="9" fill="#fdba74"/><rect x="629" y="65" width="9" height="9" fill="#fb923c"/><rect x="629" y="74" width="9" height="9" fill="#f97316"/><rect x="656" y="74" width="9" height="9" fill="#f97316"/><rect x="665" y="74" width="9" height="9" fill="#f97316"/><rect x="629" y="83" width="9" height="9" fill="#ea580c"/><rect x="665" y="83" width="9" height="9" fill="#ea580c"/><rect x="638" y="92" width="9" height="9" fill="#c2410c"/><rect x="647" y="92" width="9" height="9" fill="#c2410c"/><rect x="656" y="92" width="9" height="9" fill="#c2410c"/><rect x="692" y="56" width="9" height="9" fill="#fdba74"/><rect x="701" y="56" width="9" height="9" fill="#fdba74"/><rect x="710" y="56" width="9" height="9" fill="#fdba74"/><rect x="683" y="65" width="9" height="9" fill="#fb923c"/><rect x="719" y="65" width="9" height="9" fill="#fb923c"/><rect x="683" y="74" width="9" height="9" fill="#f97316"/><rect x="692" y="74" width="9" height="9" fill="#f97316"/><rect x="701" y="74" width="9" height="9" fill="#f97316"/><rect x="710" y="74" width="9" height="9" fill="#f97316"/><rect x="719" y="74" width="9" height="9" fill="#f97316"/><rect x="683" y="83" width="9" height="9" fill="#ea580c"/><rect x="719" y="83" width="9" height="9" fill="#ea580c"/><rect x="683" y="92" width="9" height="9" fill="#c2410c"/><rect x="719" y="92" width="9" height="9" fill="#c2410c"/><rect x="737" y="56" width="9" height="9" fill="#fdba74"/><rect x="773" y="56" width="9" height="9" fill="#fdba74"/><rect x="737" y="65" width="9" height="9" fill="#fb923c"/><rect x="746" y="65" width="9" height="9" fill="#fb923c"/><rect x="764" y="65" width="9" height="9" fill="#fb923c"/><rect x="773" y="65" width="9" height="9" fill="#fb923c"/><rect x="737" y="74" width="9" height="9" fill="#f97316"/><rect x="755" y="74" width="9" height="9" fill="#f97316"/><rect x="773" y="74" width="9" height="9" fill="#f97316"/><rect x="737" y="83" width="9" height="9" fill="#ea580c"/><rect x="773" y="83" width="9" height="9" fill="#ea580c"/><rect x="737" y="92" width="9" height="9" fill="#c2410c"/><rect x="773" y="92" width="9" height="9" fill="#c2410c"/><rect x="791" y="56" width="9" height="9" fill="#fdba74"/><rect x="800" y="56" width="9" height="9" fill="#fdba74"/><rect x="809" y="56" width="9" height="9" fill="#fdba74"/><rect x="818" y="56" width="9" height="9" fill="#fdba74"/><rect x="827" y="56" width="9" height="9" fill="#fdba74"/><rect x="791" y="65" width="9" height="9" fill="#fb923c"/><rect x="791" y="74" width="9" height="9" fill="#f97316"/><rect x="800" y="74" width="9" height="9" fill="#f97316"/><rect x="809" y="74" width="9" height="9" fill="#f97316"/><rect x="818" y="74" width="9" height="9" fill="#f97316"/><rect x="791" y="83" width="9" height="9" fill="#ea580c"/><rect x="791" y="92" width="9" height="9" fill="#c2410c"/><rect x="800" y="92" width="9" height="9" fill="#c2410c"/><rect x="809" y="92" width="9" height="9" fill="#c2410c"/><rect x="818" y="92" width="9" height="9" fill="#c2410c"/><rect x="827" y="92" width="9" height="9" fill="#c2410c"/><text x="480" y="148" text-anchor="middle" font-family="ui-monospace,SFMono-Regular,Menlo,Consolas,'Courier New',monospace" font-size="17" fill="#9aa3b8">any lesson ▸ a live multiplayer game on your students' phones</text><text x="480" y="174" text-anchor="middle" font-family="ui-monospace,SFMono-Regular,Menlo,Consolas,'Courier New',monospace" font-size="14" fill="#64748b">no code · no cloud · ready in 15 minutes</text><rect x="0" y="222" width="12" height="12" fill="#ea580c"/><rect x="0" y="210" width="12" height="12" fill="#1d2435"/><rect x="12" y="222" width="12" height="12" fill="#c2410c"/><rect x="24" y="222" width="12" height="12" fill="#ea580c"/><rect x="36" y="222" width="12" height="12" fill="#fdba74"/><rect x="36" y="210" width="12" height="12" fill="#1d2435"/><rect x="48" y="222" width="12" height="12" fill="#ea580c"/><rect x="60" y="222" width="12" height="12" fill="#c2410c"/><rect x="72" y="222" width="12" height="12" fill="#ea580c"/><rect x="72" y="210" width="12" height="12" fill="#1d2435"/><rect x="84" y="222" width="12" height="12" fill="#c2410c"/><rect x="96" y="222" width="12" height="12" fill="#ea580c"/><rect x="108" y="222" width="12" height="12" fill="#c2410c"/><rect x="108" y="210" width="12" height="12" fill="#1d2435"/><rect x="120" y="222" width="12" height="12" fill="#fdba74"/><rect x="132" y="222" width="12" height="12" fill="#c2410c"/><rect x="144" y="222" width="12" height="12" fill="#ea580c"/><rect x="144" y="210" width="12" height="12" fill="#1d2435"/><rect x="156" y="222" width="12" height="12" fill="#c2410c"/><rect x="168" y="222" width="12" height="12" fill="#ea580c"/><rect x="180" y="222" width="12" height="12" fill="#c2410c"/><rect x="180" y="210" width="12" height="12" fill="#1d2435"/><rect x="192" y="222" width="12" height="12" fill="#ea580c"/><rect x="204" y="222" width="12" height="12" fill="#fdba74"/><rect x="216" y="222" width="12" height="12" fill="#ea580c"/><rect x="216" y="210" width="12" height="12" fill="#1d2435"/><rect x="228" y="222" width="12" height="12" fill="#c2410c"/><rect x="240" y="222" width="12" height="12" fill="#ea580c"/><rect x="252" y="222" width="12" height="12" fill="#c2410c"/><rect x="252" y="210" width="12" height="12" fill="#1d2435"/><rect x="264" y="222" width="12" height="12" fill="#ea580c"/><rect x="276" y="222" width="12" height="12" fill="#c2410c"/><rect x="288" y="222" width="12" height="12" fill="#fdba74"/><rect x="288" y="210" width="12" height="12" fill="#1d2435"/><rect x="300" y="222" width="12" height="12" fill="#c2410c"/><rect x="312" y="222" width="12" height="12" fill="#ea580c"/><rect x="324" y="222" width="12" height="12" fill="#c2410c"/><rect x="324" y="210" width="12" height="12" fill="#1d2435"/><rect x="336" y="222" width="12" height="12" fill="#ea580c"/><rect x="348" y="222" width="12" height="12" fill="#c2410c"/><rect x="360" y="222" width="12" height="12" fill="#ea580c"/><rect x="360" y="210" width="12" height="12" fill="#1d2435"/><rect x="372" y="222" width="12" height="12" fill="#fdba74"/><rect x="384" y="222" width="12" height="12" fill="#ea580c"/><rect x="396" y="222" width="12" height="12" fill="#c2410c"/><rect x="396" y="210" width="12" height="12" fill="#1d2435"/><rect x="408" y="222" width="12" height="12" fill="#ea580c"/><rect x="420" y="222" width="12" height="12" fill="#c2410c"/><rect x="432" y="222" width="12" height="12" fill="#ea580c"/><rect x="432" y="210" width="12" height="12" fill="#1d2435"/><rect x="444" y="222" width="12" height="12" fill="#c2410c"/><rect x="456" y="222" width="12" height="12" fill="#fdba74"/><rect x="468" y="222" width="12" height="12" fill="#c2410c"/><rect x="468" y="210" width="12" height="12" fill="#1d2435"/><rect x="480" y="222" width="12" height="12" fill="#ea580c"/><rect x="492" y="222" width="12" height="12" fill="#c2410c"/><rect x="504" y="222" width="12" height="12" fill="#ea580c"/><rect x="504" y="210" width="12" height="12" fill="#1d2435"/><rect x="516" y="222" width="12" height="12" fill="#c2410c"/><rect x="528" y="222" width="12" height="12" fill="#ea580c"/><rect x="540" y="222" width="12" height="12" fill="#fdba74"/><rect x="540" y="210" width="12" height="12" fill="#1d2435"/><rect x="552" y="222" width="12" height="12" fill="#ea580c"/><rect x="564" y="222" width="12" height="12" fill="#c2410c"/><rect x="576" y="222" width="12" height="12" fill="#ea580c"/><rect x="576" y="210" width="12" height="12" fill="#1d2435"/><rect x="588" y="222" width="12" height="12" fill="#c2410c"/><rect x="600" y="222" width="12" height="12" fill="#ea580c"/><rect x="612" y="222" width="12" height="12" fill="#c2410c"/><rect x="612" y="210" width="12" height="12" fill="#1d2435"/><rect x="624" y="222" width="12" height="12" fill="#fdba74"/><rect x="636" y="222" width="12" height="12" fill="#c2410c"/><rect x="648" y="222" width="12" height="12" fill="#ea580c"/><rect x="648" y="210" width="12" height="12" fill="#1d2435"/><rect x="660" y="222" width="12" height="12" fill="#c2410c"/><rect x="672" y="222" width="12" height="12" fill="#ea580c"/><rect x="684" y="222" width="12" height="12" fill="#c2410c"/><rect x="684" y="210" width="12" height="12" fill="#1d2435"/><rect x="696" y="222" width="12" height="12" fill="#ea580c"/><rect x="708" y="222" width="12" height="12" fill="#fdba74"/><rect x="720" y="222" width="12" height="12" fill="#ea580c"/><rect x="720" y="210" width="12" height="12" fill="#1d2435"/><rect x="732" y="222" width="12" height="12" fill="#c2410c"/><rect x="744" y="222" width="12" height="12" fill="#ea580c"/><rect x="756" y="222" width="12" height="12" fill="#c2410c"/><rect x="756" y="210" width="12" height="12" fill="#1d2435"/><rect x="768" y="222" width="12" height="12" fill="#ea580c"/><rect x="780" y="222" width="12" height="12" fill="#c2410c"/><rect x="792" y="222" width="12" height="12" fill="#fdba74"/><rect x="792" y="210" width="12" height="12" fill="#1d2435"/><rect x="804" y="222" width="12" height="12" fill="#c2410c"/><rect x="816" y="222" width="12" height="12" fill="#ea580c"/><rect x="828" y="222" width="12" height="12" fill="#c2410c"/><rect x="828" y="210" width="12" height="12" fill="#1d2435"/><rect x="840" y="222" width="12" height="12" fill="#ea580c"/><rect x="852" y="222" width="12" height="12" fill="#c2410c"/><rect x="864" y="222" width="12" height="12" fill="#ea580c"/><rect x="864" y="210" width="12" height="12" fill="#1d2435"/><rect x="876" y="222" width="12" height="12" fill="#fdba74"/><rect x="888" y="222" width="12" height="12" fill="#ea580c"/><rect x="900" y="222" width="12" height="12" fill="#c2410c"/><rect x="900" y="210" width="12" height="12" fill="#1d2435"/><rect x="912" y="222" width="12" height="12" fill="#ea580c"/><rect x="924" y="222" width="12" height="12" fill="#c2410c"/><rect x="936" y="222" width="12" height="12" fill="#ea580c"/><rect x="936" y="210" width="12" height="12" fill="#1d2435"/><rect x="948" y="222" width="12" height="12" fill="#c2410c"/></g>
</svg>
