<svg xmlns="http://www.w3.org/2000/svg" width="960" height="12" viewBox="0 0 960 12" role="img">
<g shape-rendering="crispEdges"><rect x="0" y="0" width="12" height="12" fill="#fdba74"/><rect x="24" y="0" width="12" height="12" fill="#c2410c"/><rect x="48" y="0" width="12" height="12" fill="#f97316"/><rect x="72" y="0" width="12" height="12" fill="#c2410c"/><rect x="96" y="0" width="12" height="12" fill="#fdba74"/><rect x="120" y="0" width="12" height="12" fill="#c2410c"/><rect x="144" y="0" width="12" height="12" fill="#f97316"/><rect x="168" y="0" width="12" height="12" fill="#c2410c"/><rect x="192" y="0" width="12" height="12" fill="#fdba74"/><rect x="216" y="0" width="12" height="12" fill="#c2410c"/><rect x="240" y="0" width="12" height="12" fill="#f97316"/><rect x="264" y="0" width="12" height="12" fill="#c2410c"/><rect x="288" y="0" width="12" height="12" fill="#fdba74"/><rect x="312" y="0" width="12" height="12" fill="#c2410c"/><rect x="336" y="0" width="12" height="12" fill="#f97316"/><rect x="360" y="0" width="12" height="12" fill="#c2410c"/><rect x="384" y="0" width="12" height="12" fill="#fdba74"/><rect x="408" y="0" width="12" height="12" fill="#c2410c"/><rect x="432" y="0" width="12" height="12" fill="#f97316"/><rect x="456" y="0" width="12" height="12" fill="#c2410c"/><rect x="480" y="0" width="12" height="12" fill="#fdba74"/><rect x="504" y="0" width="12" height="12" fill="#c2410c"/><rect x="528" y="0" width="12" height="12" fill="#f97316"/><rect x="552" y="0" width="12" height="12" fill="#c2410c"/><rect x="576" y="0" width="12" height="12" fill="#fdba74"/><rect x="600" y="0" width="12" height="12" fill="#c2410c"/><rect x="624" y="0" width="12" height="12" fill="#f97316"/><rect x="648" y="0" width="12" height="12" fill="#c2410c"/><rect x="672" y="0" width="12" height="12" fill="#fdba74"/><rect x="696" y="0" width="12" height="12" fill="#c2410c"/><rect x="720" y="0" width="12" height="12" fill="#f97316"/><rect x="744" y="0" width="12" height="12" fill="#c2410c"/><rect x="768" y="0" width="12" height="12" fill="#fdba74"/><rect x="792" y="0" width="12" height="12" fill="#c2410c"/><rect x="816" y="0" width="12" height="12" fill="#f97316"/><rect x="840" y="0" width="12" height="12" fill="#c2410c"/><rect x="864" y="0" width="12" height="12" fill="#fdba74"/><rect x="888" y="0" width="12" height="12" fill="#c2410c"/><rect x="912" y="0" width="12" height="12" fill="#f97316"/><rect x="936" y="0" width="12" height="12" fill="#c2410c"/></g>
</svg>
