<svg xmlns="http://www.w3.org/2000/svg" width="1000" height="175" viewBox="0 0 1000 175" role="img">
<g shape-rendering="crispEdges"><rect x="3" y="11" width="170" height="144" fill="#171c2a"/><rect x="3" y="8" width="170" height="3" fill="#f97316"/><rect x="3" y="155" width="170" height="3" fill="#f97316"/><rect x="0" y="11" width="3" height="144" fill="#f97316"/><rect x="173" y="11" width="3" height="144" fill="#f97316"/><rect x="61" y="22" width="6" height="6" fill="#f97316"/><rect x="67" y="22" width="6" height="6" fill="#f97316"/><rect x="73" y="22" width="6" height="6" fill="#f97316"/><rect x="79" y="22" width="6" height="6" fill="#f97316"/><rect x="85" y="22" width="6" height="6" fill="#f97316"/><rect x="91" y="22" width="6" height="6" fill="#f97316"/><rect x="97" y="22" width="6" height="6" fill="#f97316"/><rect x="103" y="22" width="6" height="6" fill="#f97316"/><rect x="109" y="22" width="6" height="6" fill="#f97316"/><rect x="55" y="28" width="6" height="6" fill="#f97316"/><rect x="61" y="28" width="6" height="6" fill="#f97316"/><rect x="67" y="28" width="6" height="6" fill="#f97316"/><rect x="73" y="28" width="6" height="6" fill="#f97316"/><rect x="79" y="28" width="6" height="6" fill="#f97316"/><rect x="85" y="28" width="6" height="6" fill="#f97316"/><rect x="91" y="28" width="6" height="6" fill="#f97316"/><rect x="97" y="28" width="6" height="6" fill="#f97316"/><rect x="103" y="28" width="6" height="6" fill="#f97316"/><rect x="109" y="28" width="6" height="6" fill="#f97316"/><rect x="115" y="28" width="6" height="6" fill="#f97316"/><rect x="55" y="34" width="6" height="6" fill="#f97316"/><rect x="61" y="34" width="6" height="6" fill="#f97316"/><rect x="67" y="34" width="6" height="6" fill="#f97316"/><rect x="73" y="34" width="6" height="6" fill="#f97316"/><rect x="79" y="34" width="6" height="6" fill="#f97316"/><rect x="85" y="34" width="6" height="6" fill="#f97316"/><rect x="91" y="34" width="6" height="6" fill="#f97316"/><rect x="97" y="34" width="6" height="6" fill="#f97316"/><rect x="103" y="34" width="6" height="6" fill="#f97316"/><rect x="109" y="34" width="6" height="6" fill="#f97316"/><rect x="115" y="34" width="6" height="6" fill="#f97316"/><rect x="55" y="40" width="6" height="6" fill="#f97316"/><rect x="61" y="40" width="6" height="6" fill="#f97316"/><rect x="67" y="40" width="6" height="6" fill="#f97316"/><rect x="73" y="40" width="6" height="6" fill="#f97316"/><rect x="79" y="40" width="6" height="6" fill="#f97316"/><rect x="85" y="40" width="6" height="6" fill="#f97316"/><rect x="91" y="40" width="6" height="6" fill="#f97316"/><rect x="97" y="40" width="6" height="6" fill="#f97316"/><rect x="103" y="40" width="6" height="6" fill="#f97316"/><rect x="109" y="40" width="6" height="6" fill="#f97316"/><rect x="115" y="40" width="6" height="6" fill="#f97316"/><rect x="55" y="46" width="6" height="6" fill="#f97316"/><rect x="61" y="46" width="6" height="6" fill="#f97316"/><rect x="67" y="46" width="6" height="6" fill="#f97316"/><rect x="73" y="46" width="6" height="6" fill="#f97316"/><rect x="79" y="46" width="6" height="6" fill="#f97316"/><rect x="85" y="46" width="6" height="6" fill="#f97316"/><rect x="91" y="46" width="6" height="6" fill="#f97316"/><rect x="97" y="46" width="6" height="6" fill="#f97316"/><rect x="103" y="46" width="6" height="6" fill="#f97316"/><rect x="109" y="46" width="6" height="6" fill="#f97316"/><rect x="115" y="46" width="6" height="6" fill="#f97316"/><rect x="55" y="52" width="6" height="6" fill="#f97316"/><rect x="61" y="52" width="6" height="6" fill="#f97316"/><rect x="67" y="52" width="6" height="6" fill="#f97316"/><rect x="73" y="52" width="6" height="6" fill="#f97316"/><rect x="79" y="52" width="6" height="6" fill="#f97316"/><rect x="85" y="52" width="6" height="6" fill="#f97316"/><rect x="91" y="52" width="6" height="6" fill="#f97316"/><rect x="97" y="52" width="6" height="6" fill="#f97316"/><rect x="103" y="52" width="6" height="6" fill="#f97316"/><rect x="109" y="52" width="6" height="6" fill="#f97316"/><rect x="115" y="52" width="6" height="6" fill="#f97316"/><rect x="61" y="58" width="6" height="6" fill="#f97316"/><rect x="67" y="58" width="6" height="6" fill="#f97316"/><rect x="73" y="58" width="6" height="6" fill="#f97316"/><rect x="79" y="58" width="6" height="6" fill="#f97316"/><rect x="85" y="58" width="6" height="6" fill="#f97316"/><rect x="91" y="58" width="6" height="6" fill="#f97316"/><rect x="97" y="58" width="6" height="6" fill="#f97316"/><rect x="103" y="58" width="6" height="6" fill="#f97316"/><rect x="109" y="58" width="6" height="6" fill="#f97316"/><rect x="73" y="64" width="6" height="6" fill="#f97316"/><rect x="79" y="64" width="6" height="6" fill="#f97316"/><rect x="67" y="70" width="6" height="6" fill="#f97316"/><rect x="73" y="70" width="6" height="6" fill="#f97316"/><rect x="67" y="76" width="6" height="6" fill="#f97316"/><rect x="73" y="40" width="6" height="6" fill="#171c2a"/><rect x="85" y="40" width="6" height="6" fill="#171c2a"/><rect x="97" y="40" width="6" height="6" fill="#171c2a"/><text x="88" y="116" text-anchor="middle" font-family="ui-monospace,SFMono-Regular,Menlo,Consolas,'Courier New',monospace" font-size="15" font-weight="bold" fill="#fdba74">1 · TELL</text><text x="88" y="138" text-anchor="middle" font-family="ui-monospace,SFMono-Regular,Menlo,Consolas,'Courier New',monospace" font-size="12" fill="#9aa3b8">describe your lesson</text><rect x="193" y="60" width="4" height="4" fill="#fb923c"/><rect x="193" y="64" width="4" height="4" fill="#fb923c"/><rect x="197" y="64" width="4" height="4" fill="#fb923c"/><rect x="177" y="68" width="4" height="4" fill="#fb923c"/><rect x="181" y="68" width="4" height="4" fill="#fb923c"/><rect x="185" y="68" width="4" height="4" fill="#fb923c"/><rect x="189" y="68" width="4" height="4" fill="#fb923c"/><rect x="193" y="68" width="4" height="4" fill="#fb923c"/><rect x="197" y="68" width="4" height="4" fill="#fb923c"/><rect x="201" y="68" width="4" height="4" fill="#fb923c"/><rect x="193" y="72" width="4" height="4" fill="#fb923c"/><rect x="197" y="72" width="4" height="4" fill="#fb923c"/><rect x="193" y="76" width="4" height="4" fill="#fb923c"/><rect x="209" y="11" width="170" height="144" fill="#171c2a"/><rect x="209" y="8" width="170" height="3" fill="#f97316"/><rect x="209" y="155" width="170" height="3" fill="#f97316"/><rect x="206" y="11" width="3" height="144" fill="#f97316"/><rect x="379" y="11" width="3" height="144" fill="#f97316"/><rect x="315" y="28" width="6" height="6" fill="#f97316"/><rect x="321" y="28" width="6" height="6" fill="#f97316"/><rect x="309" y="34" width="6" height="6" fill="#f97316"/><rect x="315" y="34" width="6" height="6" fill="#f97316"/><rect x="303" y="40" width="6" height="6" fill="#f97316"/><rect x="309" y="40" width="6" height="6" fill="#f97316"/><rect x="261" y="46" width="6" height="6" fill="#f97316"/><rect x="297" y="46" width="6" height="6" fill="#f97316"/><rect x="303" y="46" width="6" height="6" fill="#f97316"/><rect x="261" y="52" width="6" height="6" fill="#f97316"/><rect x="267" y="52" width="6" height="6" fill="#f97316"/><rect x="291" y="52" width="6" height="6" fill="#f97316"/><rect x="297" y="52" width="6" height="6" fill="#f97316"/><rect x="267" y="58" width="6" height="6" fill="#f97316"/><rect x="273" y="58" width="6" height="6" fill="#f97316"/><rect x="285" y="58" width="6" height="6" fill="#f97316"/><rect x="291" y="58" width="6" height="6" fill="#f97316"/><rect x="273" y="64" width="6" height="6" fill="#f97316"/><rect x="279" y="64" width="6" height="6" fill="#f97316"/><rect x="285" y="64" width="6" height="6" fill="#f97316"/><rect x="279" y="70" width="6" height="6" fill="#f97316"/><text x="294" y="116" text-anchor="middle" font-family="ui-monospace,SFMono-Regular,Menlo,Consolas,'Courier New',monospace" font-size="15" font-weight="bold" fill="#fdba74">2 · REVIEW</text><text x="294" y="138" text-anchor="middle" font-family="ui-monospace,SFMono-Regular,Menlo,Consolas,'Courier New',monospace" font-size="12" fill="#9aa3b8">you approve questions</text><rect x="399" y="60" width="4" height="4" fill="#fb923c"/><rect x="399" y="64" width="4" height="4" fill="#fb923c"/><rect x="403" y="64" width="4" height="4" fill="#fb923c"/><rect x="383" y="68" width="4" height="4" fill="#fb923c"/><rect x="387" y="68" width="4" height="4" fill="#fb923c"/><rect x="391" y="68" width="4" height="4" fill="#fb923c"/><rect x="395" y="68" width="4" height="4" fill="#fb923c"/><rect x="399" y="68" width="4" height="4" fill="#fb923c"/><rect x="403" y="68" width="4" height="4" fill="#fb923c"/><rect x="407" y="68" width="4" height="4" fill="#fb923c"/><rect x="399" y="72" width="4" height="4" fill="#fb923c"/><rect x="403" y="72" width="4" height="4" fill="#fb923c"/><rect x="399" y="76" width="4" height="4" fill="#fb923c"/><rect x="415" y="11" width="170" height="144" fill="#171c2a"/><rect x="415" y="8" width="170" height="3" fill="#f97316"/><rect x="415" y="155" width="170" height="3" fill="#f97316"/><rect x="412" y="11" width="3" height="144" fill="#f97316"/><rect x="585" y="11" width="3" height="144" fill="#f97316"/><rect x="497" y="22" width="6" height="6" fill="#f97316"/><rect x="497" y="28" width="6" height="6" fill="#f97316"/><rect x="473" y="34" width="6" height="6" fill="#f97316"/><rect x="479" y="34" width="6" height="6" fill="#f97316"/><rect x="485" y="34" width="6" height="6" fill="#f97316"/><rect x="491" y="34" width="6" height="6" fill="#f97316"/><rect x="497" y="34" width="6" height="6" fill="#f97316"/><rect x="503" y="34" width="6" height="6" fill="#f97316"/><rect x="509" y="34" width="6" height="6" fill="#f97316"/><rect x="515" y="34" width="6" height="6" fill="#f97316"/><rect x="521" y="34" width="6" height="6" fill="#f97316"/><rect x="473" y="40" width="6" height="6" fill="#f97316"/><rect x="479" y="40" width="6" height="6" fill="#f97316"/><rect x="485" y="40" width="6" height="6" fill="#f97316"/><rect x="491" y="40" width="6" height="6" fill="#f97316"/><rect x="497" y="40" width="6" height="6" fill="#f97316"/><rect x="503" y="40" width="6" height="6" fill="#f97316"/><rect x="509" y="40" width="6" height="6" fill="#f97316"/><rect x="515" y="40" width="6" height="6" fill="#f97316"/><rect x="521" y="40" width="6" height="6" fill="#f97316"/><rect x="473" y="46" width="6" height="6" fill="#f97316"/><rect x="479" y="46" width="6" height="6" fill="#f97316"/><rect x="485" y="46" width="6" height="6" fill="#f97316"/><rect x="491" y="46" width="6" height="6" fill="#f97316"/><rect x="497" y="46" width="6" height="6" fill="#f97316"/><rect x="503" y="46" width="6" height="6" fill="#f97316"/><rect x="509" y="46" width="6" height="6" fill="#f97316"/><rect x="515" y="46" width="6" height="6" fill="#f97316"/><rect x="521" y="46" width="6" height="6" fill="#f97316"/><rect x="473" y="52" width="6" height="6" fill="#f97316"/><rect x="479" y="52" width="6" height="6" fill="#f97316"/><rect x="485" y="52" width="6" height="6" fill="#f97316"/><rect x="491" y="52" width="6" height="6" fill="#f97316"/><rect x="497" y="52" width="6" height="6" fill="#f97316"/><rect x="503" y="52" width="6" height="6" fill="#f97316"/><rect x="509" y="52" width="6" height="6" fill="#f97316"/><rect x="515" y="52" width="6" height="6" fill="#f97316"/><rect x="521" y="52" width="6" height="6" fill="#f97316"/><rect x="473" y="58" width="6" height="6" fill="#f97316"/><rect x="479" y="58" width="6" height="6" fill="#f97316"/><rect x="485" y="58" width="6" height="6" fill="#f97316"/><rect x="491" y="58" width="6" height="6" fill="#f97316"/><rect x="497" y="58" width="6" height="6" fill="#f97316"/><rect x="503" y="58" width="6" height="6" fill="#f97316"/><rect x="509" y="58" width="6" height="6" fill="#f97316"/><rect x="515" y="58" width="6" height="6" fill="#f97316"/><rect x="521" y="58" width="6" height="6" fill="#f97316"/><rect x="473" y="64" width="6" height="6" fill="#f97316"/><rect x="479" y="64" width="6" height="6" fill="#f97316"/><rect x="485" y="64" width="6" height="6" fill="#f97316"/><rect x="491" y="64" width="6" height="6" fill="#f97316"/><rect x="497" y="64" width="6" height="6" fill="#f97316"/><rect x="503" y="64" width="6" height="6" fill="#f97316"/><rect x="509" y="64" width="6" height="6" fill="#f97316"/><rect x="515" y="64" width="6" height="6" fill="#f97316"/><rect x="521" y="64" width="6" height="6" fill="#f97316"/><rect x="473" y="70" width="6" height="6" fill="#f97316"/><rect x="479" y="70" width="6" height="6" fill="#f97316"/><rect x="485" y="70" width="6" height="6" fill="#f97316"/><rect x="491" y="70" width="6" height="6" fill="#f97316"/><rect x="497" y="70" width="6" height="6" fill="#f97316"/><rect x="503" y="70" width="6" height="6" fill="#f97316"/><rect x="509" y="70" width="6" height="6" fill="#f97316"/><rect x="515" y="70" width="6" height="6" fill="#f97316"/><rect x="521" y="70" width="6" height="6" fill="#f97316"/><rect x="479" y="46" width="6" height="6" fill="#171c2a"/><rect x="485" y="46" width="6" height="6" fill="#171c2a"/><rect x="509" y="46" width="6" height="6" fill="#171c2a"/><rect x="515" y="46" width="6" height="6" fill="#171c2a"/><rect x="485" y="58" width="6" height="6" fill="#171c2a"/><rect x="491" y="58" width="6" height="6" fill="#171c2a"/><rect x="497" y="58" width="6" height="6" fill="#171c2a"/><rect x="503" y="58" width="6" height="6" fill="#171c2a"/><rect x="509" y="58" width="6" height="6" fill="#171c2a"/><text x="500" y="116" text-anchor="middle" font-family="ui-monospace,SFMono-Regular,Menlo,Consolas,'Courier New',monospace" font-size="15" font-weight="bold" fill="#fdba74">3 · PREVIEW</text><text x="500" y="138" text-anchor="middle" font-family="ui-monospace,SFMono-Regular,Menlo,Consolas,'Courier New',monospace" font-size="12" fill="#9aa3b8">bots test-drive it</text><rect x="605" y="60" width="4" height="4" fill="#fb923c"/><rect x="605" y="64" width="4" height="4" fill="#fb923c"/><rect x="609" y="64" width="4" height="4" fill="#fb923c"/><rect x="589" y="68" width="4" height="4" fill="#fb923c"/><rect x="593" y="68" width="4" height="4" fill="#fb923c"/><rect x="597" y="68" width="4" height="4" fill="#fb923c"/><rect x="601" y="68" width="4" height="4" fill="#fb923c"/><rect x="605" y="68" width="4" height="4" fill="#fb923c"/><rect x="609" y="68" width="4" height="4" fill="#fb923c"/><rect x="613" y="68" width="4" height="4" fill="#fb923c"/><rect x="605" y="72" width="4" height="4" fill="#fb923c"/><rect x="609" y="72" width="4" height="4" fill="#fb923c"/><rect x="605" y="76" width="4" height="4" fill="#fb923c"/><rect x="621" y="11" width="170" height="144" fill="#171c2a"/><rect x="621" y="8" width="170" height="3" fill="#f97316"/><rect x="621" y="155" width="170" height="3" fill="#f97316"/><rect x="618" y="11" width="3" height="144" fill="#f97316"/><rect x="791" y="11" width="3" height="144" fill="#f97316"/><rect x="685" y="22" width="6" height="6" fill="#f97316"/><rect x="691" y="22" width="6" height="6" fill="#f97316"/><rect x="697" y="22" width="6" height="6" fill="#f97316"/><rect x="703" y="22" width="6" height="6" fill="#f97316"/><rect x="709" y="22" width="6" height="6" fill="#f97316"/><rect x="715" y="22" width="6" height="6" fill="#f97316"/><rect x="721" y="22" width="6" height="6" fill="#f97316"/><rect x="685" y="28" width="6" height="6" fill="#f97316"/><rect x="691" y="28" width="6" height="6" fill="#f97316"/><rect x="697" y="28" width="6" height="6" fill="#f97316"/><rect x="703" y="28" width="6" height="6" fill="#f97316"/><rect x="709" y="28" width="6" height="6" fill="#f97316"/><rect x="715" y="28" width="6" height="6" fill="#f97316"/><rect x="721" y="28" width="6" height="6" fill="#f97316"/><rect x="685" y="34" width="6" height="6" fill="#f97316"/><rect x="691" y="34" width="6" height="6" fill="#f97316"/><rect x="697" y="34" width="6" height="6" fill="#f97316"/><rect x="703" y="34" width="6" height="6" fill="#f97316"/><rect x="709" y="34" width="6" height="6" fill="#f97316"/><rect x="715" y="34" width="6" height="6" fill="#f97316"/><rect x="721" y="34" width="6" height="6" fill="#f97316"/><rect x="685" y="40" width="6" height="6" fill="#f97316"/><rect x="691" y="40" width="6" height="6" fill="#f97316"/><rect x="697" y="40" width="6" height="6" fill="#f97316"/><rect x="703" y="40" width="6" height="6" fill="#f97316"/><rect x="709" y="40" width="6" height="6" fill="#f97316"/><rect x="715" y="40" width="6" height="6" fill="#f97316"/><rect x="721" y="40" width="6" height="6" fill="#f97316"/><rect x="685" y="46" width="6" height="6" fill="#f97316"/><rect x="691" y="46" width="6" height="6" fill="#f97316"/><rect x="697" y="46" width="6" height="6" fill="#f97316"/><rect x="703" y="46" width="6" height="6" fill="#f97316"/><rect x="709" y="46" width="6" height="6" fill="#f97316"/><rect x="715" y="46" width="6" height="6" fill="#f97316"/><rect x="721" y="46" width="6" height="6" fill="#f97316"/><rect x="685" y="52" width="6" height="6" fill="#f97316"/><rect x="691" y="52" width="6" height="6" fill="#f97316"/><rect x="697" y="52" width="6" height="6" fill="#f97316"/><rect x="703" y="52" width="6" height="6" fill="#f97316"/><rect x="709" y="52" width="6" height="6" fill="#f97316"/><rect x="715" y="52" width="6" height="6" fill="#f97316"/><rect x="721" y="52" width="6" height="6" fill="#f97316"/><rect x="685" y="58" width="6" height="6" fill="#f97316"/><rect x="691" y="58" width="6" height="6" fill="#f97316"/><rect x="697" y="58" width="6" height="6" fill="#f97316"/><rect x="703" y="58" width="6" height="6" fill="#f97316"/><rect x="709" y="58" width="6" height="6" fill="#f97316"/><rect x="715" y="58" width="6" height="6" fill="#f97316"/><rect x="721" y="58" width="6" height="6" fill="#f97316"/><rect x="685" y="64" width="6" height="6" fill="#f97316"/><rect x="691" y="64" width="6" height="6" fill="#f97316"/><rect x="697" y="64" width="6" height="6" fill="#f97316"/><rect x="703" y="64" width="6" height="6" fill="#f97316"/><rect x="709" y="64" width="6" height="6" fill="#f97316"/><rect x="715" y="64" width="6" height="6" fill="#f97316"/><rect x="721" y="64" width="6" height="6" fill="#f97316"/><rect x="685" y="70" width="6" height="6" fill="#f97316"/><rect x="691" y="70" width="6" height="6" fill="#f97316"/><rect x="697" y="70" width="6" height="6" fill="#f97316"/><rect x="703" y="70" width="6" height="6" fill="#f97316"/><rect x="709" y="70" width="6" height="6" fill="#f97316"/><rect x="715" y="70" width="6" height="6" fill="#f97316"/><rect x="721" y="70" width="6" height="6" fill="#f97316"/><rect x="685" y="76" width="6" height="6" fill="#f97316"/><rect x="691" y="76" width="6" height="6" fill="#f97316"/><rect x="697" y="76" width="6" height="6" fill="#f97316"/><rect x="703" y="76" width="6" height="6" fill="#f97316"/><rect x="709" y="76" width="6" height="6" fill="#f97316"/><rect x="715" y="76" width="6" height="6" fill="#f97316"/><rect x="721" y="76" width="6" height="6" fill="#f97316"/><rect x="685" y="82" width="6" height="6" fill="#f97316"/><rect x="691" y="82" width="6" height="6" fill="#f97316"/><rect x="697" y="82" width="6" height="6" fill="#f97316"/><rect x="703" y="82" width="6" height="6" fill="#f97316"/><rect x="709" y="82" width="6" height="6" fill="#f97316"/><rect x="715" y="82" width="6" height="6" fill="#f97316"/><rect x="721" y="82" width="6" height="6" fill="#f97316"/><rect x="691" y="28" width="6" height="6" fill="#171c2a"/><rect x="697" y="28" width="6" height="6" fill="#171c2a"/><rect x="703" y="28" width="6" height="6" fill="#171c2a"/><rect x="709" y="28" width="6" height="6" fill="#171c2a"/><rect x="715" y="28" width="6" height="6" fill="#171c2a"/><rect x="691" y="34" width="6" height="6" fill="#171c2a"/><rect x="697" y="34" width="6" height="6" fill="#171c2a"/><rect x="709" y="34" width="6" height="6" fill="#171c2a"/><rect x="715" y="34" width="6" height="6" fill="#171c2a"/><rect x="691" y="40" width="6" height="6" fill="#171c2a"/><rect x="697" y="40" width="6" height="6" fill="#171c2a"/><rect x="709" y="40" width="6" height="6" fill="#171c2a"/><rect x="715" y="40" width="6" height="6" fill="#171c2a"/><rect x="691" y="46" width="6" height="6" fill="#171c2a"/><rect x="697" y="46" width="6" height="6" fill="#171c2a"/><rect x="703" y="46" width="6" height="6" fill="#171c2a"/><rect x="709" y="46" width="6" height="6" fill="#171c2a"/><rect x="715" y="46" width="6" height="6" fill="#171c2a"/><rect x="691" y="52" width="6" height="6" fill="#171c2a"/><rect x="697" y="52" width="6" height="6" fill="#171c2a"/><rect x="703" y="52" width="6" height="6" fill="#171c2a"/><rect x="709" y="52" width="6" height="6" fill="#171c2a"/><rect x="715" y="52" width="6" height="6" fill="#171c2a"/><rect x="691" y="58" width="6" height="6" fill="#171c2a"/><rect x="697" y="58" width="6" height="6" fill="#171c2a"/><rect x="703" y="58" width="6" height="6" fill="#171c2a"/><rect x="709" y="58" width="6" height="6" fill="#171c2a"/><rect x="715" y="58" width="6" height="6" fill="#171c2a"/><rect x="691" y="64" width="6" height="6" fill="#171c2a"/><rect x="697" y="64" width="6" height="6" fill="#171c2a"/><rect x="703" y="64" width="6" height="6" fill="#171c2a"/><rect x="709" y="64" width="6" height="6" fill="#171c2a"/><rect x="715" y="64" width="6" height="6" fill="#171c2a"/><rect x="703" y="76" width="6" height="6" fill="#171c2a"/><rect x="691" y="28" width="6" height="6" fill="#fb923c"/><rect x="697" y="28" width="6" height="6" fill="#fb923c"/><rect x="691" y="34" width="6" height="6" fill="#fb923c"/><rect x="709" y="28" width="6" height="6" fill="#fb923c"/><rect x="715" y="28" width="6" height="6" fill="#fb923c"/><rect x="715" y="34" width="6" height="6" fill="#fb923c"/><rect x="691" y="52" width="6" height="6" fill="#fb923c"/><rect x="691" y="58" width="6" height="6" fill="#fb923c"/><rect x="697" y="58" width="6" height="6" fill="#fb923c"/><rect x="703" y="40" width="6" height="6" fill="#fb923c"/><rect x="709" y="46" width="6" height="6" fill="#fb923c"/><rect x="715" y="58" width="6" height="6" fill="#fb923c"/><text x="706" y="116" text-anchor="middle" font-family="ui-monospace,SFMono-Regular,Menlo,Consolas,'Courier New',monospace" font-size="15" font-weight="bold" fill="#fdba74">4 · PLAY</text><text x="706" y="138" text-anchor="middle" font-family="ui-monospace,SFMono-Regular,Menlo,Consolas,'Courier New',monospace" font-size="12" fill="#9aa3b8">class joins by QR</text><rect x="811" y="60" width="4" height="4" fill="#fb923c"/><rect x="811" y="64" width="4" height="4" fill="#fb923c"/><rect x="815" y="64" width="4" height="4" fill="#fb923c"/><rect x="795" y="68" width="4" height="4" fill="#fb923c"/><rect x="799" y="68" width="4" height="4" fill="#fb923c"/><rect x="803" y="68" width="4" height="4" fill="#fb923c"/><rect x="807" y="68" width="4" height="4" fill="#fb923c"/><rect x="811" y="68" width="4" height="4" fill="#fb923c"/><rect x="815" y="68" width="4" height="4" fill="#fb923c"/><rect x="819" y="68" width="4" height="4" fill="#fb923c"/><rect x="811" y="72" width="4" height="4" fill="#fb923c"/><rect x="815" y="72" width="4" height="4" fill="#fb923c"/><rect x="811" y="76" width="4" height="4" fill="#fb923c"/><rect x="827" y="11" width="170" height="144" fill="#171c2a"/><rect x="827" y="8" width="170" height="3" fill="#f97316"/><rect x="827" y="155" width="170" height="3" fill="#f97316"/><rect x="824" y="11" width="3" height="144" fill="#f97316"/><rect x="997" y="11" width="3" height="144" fill="#f97316"/><rect x="927" y="34" width="6" height="6" fill="#f97316"/><rect x="933" y="34" width="6" height="6" fill="#f97316"/><rect x="927" y="40" width="6" height="6" fill="#f97316"/><rect x="933" y="40" width="6" height="6" fill="#f97316"/><rect x="909" y="46" width="6" height="6" fill="#f97316"/><rect x="915" y="46" width="6" height="6" fill="#f97316"/><rect x="927" y="46" width="6" height="6" fill="#f97316"/><rect x="933" y="46" width="6" height="6" fill="#f97316"/><rect x="909" y="52" width="6" height="6" fill="#f97316"/><rect x="915" y="52" width="6" height="6" fill="#f97316"/><rect x="927" y="52" width="6" height="6" fill="#f97316"/><rect x="933" y="52" width="6" height="6" fill="#f97316"/><rect x="909" y="58" width="6" height="6" fill="#f97316"/><rect x="915" y="58" width="6" height="6" fill="#f97316"/><rect x="927" y="58" width="6" height="6" fill="#f97316"/><rect x="933" y="58" width="6" height="6" fill="#f97316"/><rect x="885" y="64" width="6" height="6" fill="#f97316"/><rect x="891" y="64" width="6" height="6" fill="#f97316"/><rect x="909" y="64" width="6" height="6" fill="#f97316"/><rect x="915" y="64" width="6" height="6" fill="#f97316"/><rect x="927" y="64" width="6" height="6" fill="#f97316"/><rect x="933" y="64" width="6" height="6" fill="#f97316"/><rect x="885" y="70" width="6" height="6" fill="#f97316"/><rect x="891" y="70" width="6" height="6" fill="#f97316"/><rect x="909" y="70" width="6" height="6" fill="#f97316"/><rect x="915" y="70" width="6" height="6" fill="#f97316"/><rect x="927" y="70" width="6" height="6" fill="#f97316"/><rect x="933" y="70" width="6" height="6" fill="#f97316"/><rect x="885" y="76" width="6" height="6" fill="#f97316"/><rect x="891" y="76" width="6" height="6" fill="#f97316"/><rect x="909" y="76" width="6" height="6" fill="#f97316"/><rect x="915" y="76" width="6" height="6" fill="#f97316"/><rect x="927" y="76" width="6" height="6" fill="#f97316"/><rect x="933" y="76" width="6" height="6" fill="#f97316"/><rect x="879" y="82" width="6" height="6" fill="#f97316"/><rect x="885" y="82" width="6" height="6" fill="#f97316"/><rect x="891" y="82" width="6" height="6" fill="#f97316"/><rect x="897" y="82" width="6" height="6" fill="#f97316"/><rect x="903" y="82" width="6" height="6" fill="#f97316"/><rect x="909" y="82" width="6" height="6" fill="#f97316"/><rect x="915" y="82" width="6" height="6" fill="#f97316"/><rect x="921" y="82" width="6" height="6" fill="#f97316"/><rect x="927" y="82" width="6" height="6" fill="#f97316"/><rect x="933" y="82" width="6" height="6" fill="#f97316"/><rect x="939" y="82" width="6" height="6" fill="#f97316"/><text x="912" y="116" text-anchor="middle" font-family="ui-monospace,SFMono-Regular,Menlo,Consolas,'Courier New',monospace" font-size="15" font-weight="bold" fill="#fdba74">5 · LEARN</text><text x="912" y="138" text-anchor="middle" font-family="ui-monospace,SFMono-Regular,Menlo,Consolas,'Courier New',monospace" font-size="12" fill="#9aa3b8">get a reteach report</text></g>
</svg>
